<svg xmlns="http://www.w3.org/2000/svg" viewBox="0 0 48 48" width="48" height="48">
  <rect width="48" height="48" rx="11" fill="#101D3A"/>
  <path d="M24 8C15.2 8 8 14.1 8 21.9c0 4.1 1.9 7.9 5 10.5c.4.4.6.9.5 1.4l-1.1 4.2c-.3 1 .7 1.8 1.6 1.4l5.2-2c.4-.1.8-.1 1.2 0c1.1.3 2.3.4 3.6.4c8.8 0 16-6.1 16-13.9S32.8 8 24 8z" fill="#246BFD"/>
  <circle cx="24" cy="21.6" r="7.4" stroke="#FFFFFF" stroke-width="2.1" fill="none"/>
  <path d="M24 17.2v4.6l3.4 2.1" stroke="#34C17D" stroke-width="2.1" stroke-linecap="round" stroke-linejoin="round" fill="none"/>
</svg>
